<svg id="Layer_1" enable-background="new 0 0 68 68" viewBox="0 0 68 68" xmlns="http://www.w3.org/2000/svg"><g><g><g><path d="m50.2598343 24.5890236v16.3479156h-46.2935355v-11.341856c0-2.7647705 2.2412899-5.0060596 5.0060606-5.0060596z" fill="#8cc2fe"/></g></g><g><g><path d="m58.9596329 6.0455742v40.9864845h-49.9139366v-40.9864845c0-2.2055433 1.7879467-3.9934895 3.9934902-3.9934895h41.9269562c2.2055416 0 3.9934902 1.7879462 3.9934902 3.9934895z" fill="#e9edf4"/></g></g><g><g><path d="m64.033699 26.3324871v34.6102448c0 2.7688408-2.2363434 5.0051842-5.0051842 5.0051842h-50.0517015c-2.7688422 0-5.0051861-2.2363434-5.0051861-5.0051842v-23.7613125c0-2.7687607 2.2363441-5.0051079 5.0051861-5.0051079h12.5395346c5.4977093 0 10.5295467-3.1282806 12.965517-8.0536003.8386383-1.7171707 2.5824585-2.7954102 4.4860115-2.7954102h20.0606384c2.7688409 0 5.0051842 2.2496681 5.0051842 5.0051861z" fill="#8dd1fe"/></g></g><g><g><g><path d="m52.5353775 9.550252c0 .7176332-.5722008 1.289834-1.2898331 1.289834h-34.4857597c-.7079849 0-1.289834-.5722008-1.289834-1.289834s.5818491-1.289834 1.289834-1.289834h34.4857597c.7176323-.0000001 1.2898331.5722007 1.2898331 1.289834z" fill="#d2dbea"/></g></g><g><g><path d="m52.5353775 16.1606503c0 .7176342-.5722008 1.289835-1.2898331 1.289835h-34.4857597c-.7079849 0-1.289834-.5722008-1.289834-1.289835 0-.7176323.5818491-1.2898331 1.289834-1.2898331h34.4857597c.7176323 0 1.2898331.5722008 1.2898331 1.2898331z" fill="#d2dbea"/></g></g></g></g></svg>